<svg xmlns="http://www.w3.org/2000/svg" fill="none" viewBox="0 0 32 32">
  <defs>
    <linearGradient id="g" x1="0" y1="0" x2="32" y2="32">
      <stop offset="0%" stop-color="#00d4ff"/>
      <stop offset="100%" stop-color="#7c3aed"/>
    </linearGradient>
  </defs>
  <rect width="32" height="32" rx="8" fill="#0f0f23"/>
  <path d="M16 6a10 10 0 0 0-10 10 10 10 0 0 0 10 10 10 10 0 0 0 10-10A10 10 0 0 0 16 6zm0 4a3 3 0 1 1 0 6 3 3 0 0 1 0-6zm0 14c-3 0-5.6-1.5-7.2-3.8a10.2 10.2 0 0 1 14.4 0C21.6 22.5 19 24 16 24z" fill="url(#g)"/>
</svg>
